<?xml version="1.0" encoding="utf-8"?>
<!-- Generator: Adobe Illustrator 16.0.0, SVG Export Plug-In . SVG Version: 6.00 Build 0)  -->
<!DOCTYPE svg PUBLIC "-//W3C//DTD SVG 1.1//EN" "http://www.w3.org/Graphics/SVG/1.1/DTD/svg11.dtd">
<svg version="1.1" id="Layer_1" xmlns="http://www.w3.org/2000/svg" xmlns:xlink="http://www.w3.org/1999/xlink" x="0px" y="0px"
	 width="1605.161px" height="932px" viewBox="0 0 1605.161 932" enable-background="new 0 0 1605.161 932" xml:space="preserve">
<g>
	<g>
		<g>
			<polygon fill="#B2D628" stroke="#1E5021" stroke-width="1.2205" stroke-miterlimit="10" points="244.436,363.451 
				232.327,342.476 244.436,321.5 268.655,321.5 280.765,342.476 268.655,363.451 			"/>
			<polygon fill="#B2D628" stroke="#1E5021" stroke-width="1.2205" stroke-miterlimit="10" points="244.436,576.477 
				232.327,555.503 244.436,534.528 268.655,534.528 280.765,555.503 268.655,576.477 			"/>
			<polygon fill="#B2D628" stroke="#1E5021" stroke-width="1.2205" stroke-miterlimit="10" points="373.042,363.451 
				360.931,342.476 373.042,321.5 397.261,321.5 409.37,342.476 397.261,363.451 			"/>
			<polygon fill="#B2D628" stroke="#1E5021" stroke-width="1.2205" stroke-miterlimit="10" points="373.042,576.477 
				360.931,555.503 373.042,534.528 397.261,534.528 409.37,555.503 397.261,576.477 			"/>
			<polygon fill="#B2D628" stroke="#1E5021" stroke-width="1.2205" stroke-miterlimit="10" points="308.74,320.269 296.629,299.293 
				308.74,278.32 332.959,278.32 345.069,299.293 332.959,320.269 			"/>
			<g>
				<path fill="#1E5021" d="M434.641,488.42l-22.38-38.763c0-0.012,0.004-0.021,0.004-0.032c0-0.323-0.094-0.626-0.251-0.9
					l22.617-39.173l-22.762-39.421h-45.517l-22.746-39.397h-45.521l-22.762,39.423l0.019,0.033h-45.52l-22.763,39.423l22.763,39.424
					l-22.763,39.426l22.763,39.424h45.52l22.744,39.393h45.521l22.761-39.428l-0.005-0.008h45.516L434.641,488.42z"/>
				<polygon fill="#B2D628" points="303.387,479.247 285.926,449.003 303.387,418.762 338.307,418.762 355.766,449.003 
					338.307,479.247 				"/>
				<polygon fill="#B2D628" stroke="#1E5021" stroke-width="1.2205" stroke-miterlimit="10" points="355.757,509.482 
					338.296,479.238 355.757,448.997 390.678,448.997 408.136,479.238 390.678,509.482 				"/>
				<polygon fill="#B2D628" stroke="#1E5021" stroke-width="1.2205" stroke-miterlimit="10" points="355.757,449.003 
					338.296,418.762 355.757,388.521 390.678,388.521 408.136,418.762 390.678,449.003 				"/>
				<polygon fill="#B2D628" stroke="#1E5021" stroke-width="1.2205" stroke-miterlimit="10" points="303.387,539.729 
					285.926,509.489 303.387,479.247 338.307,479.247 355.766,509.489 338.307,539.729 				"/>
				<polygon fill="#B2D628" stroke="#1E5021" stroke-width="1.2205" stroke-miterlimit="10" points="251.021,509.515 
					233.561,479.271 251.021,449.029 285.941,449.029 303.402,479.271 285.941,509.515 				"/>
				<polygon fill="#B2D628" stroke="#1E5021" stroke-width="1.2205" stroke-miterlimit="10" points="303.387,418.762 
					285.926,388.521 303.387,358.278 338.307,358.278 355.766,388.521 338.307,418.762 				"/>
				<polygon fill="#B2D628" stroke="#1E5021" stroke-width="1.2205" stroke-miterlimit="10" points="251.021,449.029 
					233.561,418.788 251.021,388.546 285.941,388.546 303.402,418.788 285.941,449.029 				"/>
			</g>
		</g>
		<g>
			<rect x="191.945" y="617.705" fill="none" width="23.981" height="5.995"/>
			<rect x="476.733" y="617.705" fill="none" width="23.982" height="5.995"/>
			<path fill="#1E5021" d="M132.457,597.283c-2.31,2.312-3.466,5.123-3.466,8.432v11.99c0,3.311,1.156,6.152,3.466,8.525
				c2.312,2.312,5.153,3.466,8.526,3.466h23.982v11.993h-35.975v11.99h35.975c3.245,0,6.056-1.156,8.431-3.466
				c2.372-2.312,3.56-5.153,3.56-8.524v-11.993c0-3.245-1.188-6.057-3.56-8.432c-2.312-2.371-5.123-3.56-8.431-3.56h-23.982v-11.99
				h35.973v-11.991h-35.973C137.671,593.724,134.83,594.91,132.457,597.283z"/>
			<path fill="#1E5021" d="M215.927,605.715h-23.981c-3.312,0-6.152,1.188-8.526,3.559c-2.311,2.313-3.466,5.123-3.466,8.432v23.984
				c0,3.311,1.156,6.152,3.466,8.524c2.311,2.31,5.154,3.466,8.526,3.466h35.972v-11.99h-35.972v-5.996h35.972v-17.988
				c0-3.247-1.187-6.056-3.559-8.432C222.046,606.903,219.235,605.715,215.927,605.715z M215.927,623.7h-23.981v-5.995h23.981V623.7
				z"/>
			<path fill="#1E5021" d="M234.382,609.273c-2.311,2.313-3.467,5.123-3.467,8.432v23.984c0,3.311,1.156,6.152,3.467,8.524
				c2.309,2.31,5.153,3.466,8.525,3.466h17.733v-11.99h-17.733v-23.984h23.983v18.537v5.447v11.99h11.991v-47.965h-35.974
				C239.596,605.715,236.754,606.903,234.382,609.273z"/>
			<polygon fill="#1E5021" points="281.878,605.715 299.865,605.715 299.865,653.68 311.854,653.68 311.854,605.715 
				329.843,605.715 329.843,593.724 281.878,593.724 			"/>
			<path fill="#1E5021" d="M368.814,641.689h-23.982v-35.975h-11.992v35.975c0,3.311,1.156,6.152,3.467,8.524
				c2.311,2.31,5.152,3.466,8.525,3.466h23.982c3.246,0,6.056-1.156,8.431-3.466c2.373-2.312,3.559-5.153,3.559-8.524v-35.975
				h-11.99V641.689z"/>
			<path fill="#1E5021" d="M387.269,609.273c-2.312,2.313-3.465,5.123-3.465,8.432v35.975h11.991v-35.975h23.982v-11.99h-23.982
				C392.483,605.715,389.642,606.903,387.269,609.273z"/>
			<path fill="#1E5021" d="M434.765,593.724h-11.991v47.966c0,3.311,1.155,6.152,3.466,8.524c2.311,2.31,5.153,3.466,8.525,3.466
				h11.99v-11.99h-11.99v-23.984h11.99v-11.99h-11.99V593.724z"/>
			<rect x="449.754" y="593.724" fill="#1E5021" width="11.991" height="59.956"/>
			<path fill="#1E5021" d="M512.708,635.693v-17.988c0-3.247-1.188-6.056-3.56-8.432c-2.311-2.37-5.121-3.559-8.432-3.559h-23.982
				c-3.311,0-6.152,1.188-8.524,3.559c-2.312,2.313-3.466,5.123-3.466,8.432v23.984c0,3.311,1.154,6.152,3.466,8.524
				c2.31,2.31,5.151,3.466,8.524,3.466h35.974v-11.99h-35.974v-5.996H512.708z M476.733,617.705h23.982v5.995h-23.982V617.705z"/>
		</g>
	</g>
	<g>
		<g>
			<polygon fill="#B2D628" stroke="#1E5021" stroke-width="0.5391" stroke-miterlimit="10" points="652.647,409.529 
				641.954,391.008 652.647,372.487 674.032,372.487 684.723,391.008 674.032,409.529 			"/>
			<polygon fill="#B2D628" stroke="#1E5021" stroke-width="0.5391" stroke-miterlimit="10" points="652.647,597.64 641.954,579.116 
				652.647,560.593 674.032,560.593 684.723,579.116 674.032,597.64 			"/>
			<polygon fill="#B2D628" stroke="#1E5021" stroke-width="0.5391" stroke-miterlimit="10" points="766.206,409.529 
				755.512,391.008 766.206,372.487 787.592,372.487 798.284,391.008 787.592,409.529 			"/>
			<polygon fill="#B2D628" stroke="#1E5021" stroke-width="0.5391" stroke-miterlimit="10" points="766.206,597.64 755.512,579.116 
				766.206,560.593 787.592,560.593 798.284,579.116 787.592,597.64 			"/>
			<polygon fill="#B2D628" stroke="#1E5021" stroke-width="0.5391" stroke-miterlimit="10" points="709.427,371.402 
				698.736,352.881 709.427,334.36 730.814,334.36 741.504,352.881 730.814,371.402 			"/>
			<path fill="#1E5021" d="M820.599,519.881l-19.764-34.225c0-0.01,0.008-0.019,0.008-0.028c0-0.29-0.085-0.558-0.223-0.797
				l19.969-34.59l-20.096-34.812H760.3l-20.084-34.789h-40.199l-20.098,34.813l0.014,0.028h-40.194l-20.098,34.815l20.098,34.807
				l-20.098,34.814l20.098,34.816h40.194l20.084,34.778h40.199l20.098-34.812l-0.005-0.009H800.5L820.599,519.881z"/>
			<polygon fill="#B2D628" points="704.7,511.781 689.282,485.08 704.7,458.377 735.534,458.377 750.952,485.08 735.534,511.781 			
				"/>
			<polygon fill="#B2D628" stroke="#1E5021" stroke-width="0.5391" stroke-miterlimit="10" points="750.944,538.479 
				735.526,511.777 750.944,485.07 781.778,485.07 797.196,511.777 781.778,538.479 			"/>
			<polygon fill="#B2D628" stroke="#1E5021" stroke-width="0.5391" stroke-miterlimit="10" points="750.944,485.08 735.526,458.373 
				750.944,431.671 781.778,431.671 797.196,458.373 781.778,485.08 			"/>
			<polygon fill="#B2D628" stroke="#1E5021" stroke-width="0.5391" stroke-miterlimit="10" points="704.7,565.186 689.282,538.484 
				704.7,511.781 735.534,511.781 750.952,538.484 735.534,565.186 			"/>
			<polygon fill="#B2D628" stroke="#1E5021" stroke-width="0.5391" stroke-miterlimit="10" points="658.462,538.507 
				643.042,511.801 658.462,485.104 689.293,485.104 704.714,511.801 689.293,538.507 			"/>
			<polygon fill="#B2D628" stroke="#1E5021" stroke-width="0.5391" stroke-miterlimit="10" points="704.7,458.377 689.282,431.671 
				704.7,404.964 735.534,404.964 750.952,431.671 735.534,458.377 			"/>
			<polygon fill="#B2D628" stroke="#1E5021" stroke-width="0.5391" stroke-miterlimit="10" points="658.462,485.104 
				643.042,458.396 658.462,431.689 689.293,431.689 704.714,458.396 689.293,485.104 			"/>
		</g>
		<g>
			<rect x="953.559" y="478.851" fill="none" width="39.076" height="9.768"/>
			<rect x="1417.558" y="478.851" fill="none" width="39.076" height="9.768"/>
			<path fill="#1E5021" d="M856.637,445.582c-3.764,3.768-5.646,8.343-5.646,13.732v19.536c0,5.399,1.882,10.03,5.646,13.893
				c3.767,3.769,8.397,5.644,13.891,5.644h39.076v19.544h-58.612v19.536h58.612c5.287,0,9.866-1.884,13.736-5.652
				c3.864-3.76,5.8-8.391,5.8-13.884v-19.544c0-5.287-1.936-9.862-5.8-13.734c-3.766-3.861-8.346-5.802-13.736-5.802h-39.076
				v-19.536h58.611v-19.535h-58.611C865.135,439.779,860.504,441.711,856.637,445.582z"/>
			<path fill="#1E5021" d="M992.635,459.314h-39.076c-5.392,0-10.021,1.941-13.888,5.803c-3.766,3.769-5.648,8.344-5.648,13.733
				v39.08c0,5.391,1.882,10.021,5.648,13.884c3.764,3.769,8.395,5.652,13.888,5.652h58.612v-19.536h-58.612v-9.767h58.612v-29.313
				c0-5.287-1.936-9.862-5.8-13.733C1002.604,461.256,998.025,459.314,992.635,459.314z M992.635,488.618h-39.076v-9.768h39.076
				V488.618z"/>
			<path fill="#1E5021" d="M1022.702,465.117c-3.766,3.769-5.647,8.344-5.647,13.733v39.08c0,5.391,1.882,10.021,5.647,13.884
				c3.764,3.769,8.395,5.652,13.89,5.652h28.893v-19.536h-28.893v-39.08h39.073v30.203v8.877v19.536h19.536v-78.152h-58.609
				C1031.197,459.314,1026.569,461.256,1022.702,465.117z"/>
			<polygon fill="#1E5021" points="1100.085,459.314 1129.391,459.314 1129.391,537.467 1148.927,537.467 1148.927,459.314 
				1178.233,459.314 1178.233,439.779 1100.085,439.779 			"/>
			<path fill="#1E5021" d="M1241.728,517.931h-39.074v-58.616h-19.538v58.616c0,5.391,1.884,10.021,5.648,13.884
				c3.764,3.769,8.394,5.652,13.89,5.652h39.074c5.29,0,9.869-1.884,13.738-5.652c3.865-3.76,5.798-8.391,5.798-13.884v-58.616
				h-19.536V517.931z"/>
			<path fill="#1E5021" d="M1271.798,465.117c-3.767,3.769-5.648,8.344-5.648,13.733v58.616h19.536v-58.616h39.073v-19.536h-39.073
				C1280.293,459.314,1275.662,461.256,1271.798,465.117z"/>
			<path fill="#1E5021" d="M1349.181,439.779h-19.538v78.151c0,5.391,1.884,10.021,5.648,13.884
				c3.764,3.769,8.395,5.652,13.89,5.652h19.538v-19.536h-19.538v-39.08h19.538v-19.536h-19.538V439.779z"/>
			<rect x="1373.603" y="439.779" fill="#1E5021" width="19.536" height="97.688"/>
			<path fill="#1E5021" d="M1476.17,508.164v-29.313c0-5.287-1.934-9.862-5.8-13.733c-3.764-3.861-8.345-5.803-13.735-5.803h-39.076
				c-5.392,0-10.023,1.941-13.888,5.803c-3.766,3.769-5.648,8.344-5.648,13.733v39.08c0,5.391,1.882,10.021,5.648,13.884
				c3.764,3.769,8.395,5.652,13.888,5.652h58.612v-19.536h-58.612v-9.767H1476.17z M1417.558,478.851h39.076v9.768h-39.076V478.851z
				"/>
		</g>
	</g>
</g>
</svg>
